<?xml version="1.0" encoding="UTF-8"?>
<svg xmlns="http://www.w3.org/2000/svg" xmlns:xlink="http://www.w3.org/1999/xlink" width="80px" height="80px" viewBox="0 0 80 80" version="1.1">
<g id="surface1">
<path style=" stroke:none;fill-rule:nonzero;fill:rgb(0%,0%,0%);fill-opacity:1;" d="M 40 0 C 17.882812 0 0 17.882812 0 40 C 0 62.117188 17.882812 80 40 80 C 62.117188 80 80 62.136719 80 40 C 80 17.863281 62.136719 0 40 0 Z M 43.402344 73.195312 L 43.402344 71.492188 C 43.402344 69.628906 41.863281 68.089844 40 68.089844 C 38.136719 68.089844 36.597656 69.628906 36.597656 71.492188 L 36.597656 73.195312 C 20.925781 71.589844 8.410156 59.074219 6.820312 43.417969 L 8.34375 43.417969 C 10.207031 43.417969 11.746094 41.882812 11.746094 40.015625 C 11.746094 38.152344 10.207031 36.613281 8.34375 36.613281 L 6.820312 36.613281 C 8.425781 20.941406 20.941406 8.425781 36.597656 6.839844 L 36.597656 8.34375 C 36.597656 10.207031 38.136719 11.746094 40 11.746094 C 41.863281 11.746094 43.402344 10.207031 43.402344 8.34375 L 43.402344 6.820312 C 59.074219 8.425781 71.589844 20.941406 73.179688 36.597656 L 71.492188 36.597656 C 69.628906 36.597656 68.089844 38.136719 68.089844 40 C 68.089844 41.863281 69.628906 43.402344 71.492188 43.402344 L 73.195312 43.402344 C 71.589844 59.074219 59.074219 71.589844 43.402344 73.195312 Z M 43.402344 73.195312 "/>
<path style=" stroke:none;fill-rule:nonzero;fill:rgb(0%,0%,0%);fill-opacity:1;" d="M 40 20.433594 C 38.136719 20.433594 36.597656 21.972656 36.597656 23.835938 L 36.597656 38.804688 L 21.105469 57.882812 C 19.910156 59.417969 20.253906 61.449219 21.613281 62.640625 C 23.507812 64.03125 25.519531 62.984375 26.207031 62.136719 L 42.730469 42.046875 C 43.074219 41.539062 43.417969 40.851562 43.417969 40 L 43.417969 23.835938 C 43.402344 21.953125 41.882812 20.433594 40 20.433594 Z M 40 20.433594 "/>
</g>
</svg>
